<svg fill="none" height="24" viewBox="0 0 24 24" width="24" xmlns="http://www.w3.org/2000/svg"><path d="m11.25 9.874c0 .4142.3358.75.75.75s.75-.3358.75-.75zm1.5-5.874c0-.41421-.3358-.75-.75-.75s-.75.33579-.75.75zm-3.43918 2.66156c.37697-.17165.5434-.61641.37174-.99338-.17165-.37697-.61641-.5434-.99338-.37174zm-4.31082 5.49844-.7501-.0039.00015.0126zm7 6.84.0086-.75c-.0057 0-.0115 0-.0172 0zm7-6.84.7501.0087-.0001-.0126zm-3.6892-6.86356c-.377-.17166-.8217-.00523-.9934.37174-.1716.37697-.0052.82173.3718.99338zm-2.5608 4.57756v-5.874h-1.5v5.874zm-4.06082-4.57756c-2.69075 1.22527-4.42368 3.90307-4.43917 6.85966l1.49998.0078c.01243-2.37153 1.40247-4.5195 3.56083-5.50234zm-4.43913 6.87226c.0493 4.2359 3.52273 7.6299 7.75855 7.5813l-.0172-1.5c-3.40756.0392-6.20179-2.6912-6.24145-6.0987zm7.74135 7.5813c4.2358.0486 7.7093-3.3454 7.7585-7.5813l-1.4998-.0174c-.0397 3.4075-2.8339 6.1379-6.2415 6.0987zm7.7586-7.5939c-.0155-2.95659-1.7484-5.63439-4.4392-6.85966l-.6216 1.36512c2.1583.98284 3.5484 3.13081 3.5608 5.50234z" fill="#000"/></svg>