<svg viewBox="0 0 828 1045.491" xmlns="http://www.w3.org/2000/svg"><path d="M327.098 21.333h173.998c84.513.103 152.997 68.587 153.1 153.09V391.59c0 132.478-107.394 239.872-239.872 239.872h-.454c-132.415-.155-239.717-107.457-239.872-239.857V174.433c.103-84.513 68.587-152.997 153.09-153.1h.01zm87.227 564.7c107.387 0 194.442-87.056 194.442-194.443V174.433C608.69 115 560.53 66.84 501.105 66.763H327.1C267.667 66.84 219.508 115 219.43 174.425V391.59c.13 107.334 87.107 194.312 194.43 194.44h.012zM173.998 195.33h480.2v22.716c-.11 42.34-17.273 80.653-44.98 108.446l.003-.004c-27.535 27.59-65.604 44.66-107.66 44.66-.163 0-.326 0-.488-.002H327.1c-84.514-.103-152.998-68.587-153.1-153.09v-.01zm432.315 45.432H221.836c10.893 48.882 53.863 84.89 105.255 84.955h174.302c29.572 0 56.342-11.998 75.707-31.39v-.002c14.235-14.26 24.52-32.47 29.076-52.84l.136-.723zm221.428 804.57h-45.43v-45.43c.002-.27.002-.588.002-.908 0-203.484-164.957-368.44-368.44-368.44-203.166 0-367.924 164.438-368.44 367.482v45.48H0v-45.43C.504 769.893 185.607 585.1 413.87 585.1c228.574 0 413.87 185.297 413.87 413.87v.935-.048zm-413.87-198.53c36.632 0 66.328 29.696 66.328 66.328s-29.696 66.328-66.328 66.328c-36.632 0-66.328-29.696-66.328-66.328.052-36.61 29.717-66.277 66.323-66.328h.005zm0 87.227c11.542 0 20.898-9.357 20.898-20.9s-9.356-20.897-20.898-20.897-20.898 9.356-20.898 20.898c.026 11.532 9.367 20.873 20.896 20.9h.002zm66.33 109.486h-45.43V913.13h45.43zM413.87 905L179.268 623.74l34.71-29.075L413.87 834.083l199.895-239.418 34.89 29.12z"/></svg>